<svg width="139" height="24" viewBox="0 0 139 24" fill="none" xmlns="http://www.w3.org/2000/svg">
<path d="M1.616 1.112V0.599998H8.176C9.05067 0.599998 9.76533 0.749332 10.32 1.048C10.896 1.32533 11.4933 1.95467 12.112 2.936L20.208 15.96H20.336V8.088C20.336 4.84533 20.0587 2.88267 19.504 2.2C18.8853 1.47467 17.9573 1.112 16.72 1.112H15.664V0.599998H24.976V1.112H24.592C23.376 1.15467 22.544 1.47467 22.096 2.072C21.84 2.392 21.6267 2.72267 21.456 3.064C21.3067 3.384 21.2 3.85333 21.136 4.472C21.0293 5.496 20.976 6.712 20.976 8.12V22.712H19.088C18.2133 22.712 17.488 22.5733 16.912 22.296C16.3573 21.9973 15.7707 21.3573 15.152 20.376L5.68 5.464V15.864C5.68 18.9787 5.95733 20.8027 6.512 21.336C7.13067 21.912 8.05867 22.2 9.296 22.2H9.904V22.712H0.912V22.2H1.424C2.68267 22.1573 3.61067 21.816 4.208 21.176C4.76267 20.5787 5.04 18.7973 5.04 15.832V4.44L4.496 3.576C4.47467 3.55467 4.4 3.43733 4.272 3.224C4.144 2.98933 4.048 2.82933 3.984 2.744C3.92 2.63733 3.81333 2.488 3.664 2.296C3.51467 2.08267 3.376 1.92267 3.248 1.816C3.12 1.70933 2.97067 1.592 2.8 1.464C2.48 1.22933 2.08533 1.112 1.616 1.112ZM39.5825 21.144C38.0252 22.5947 35.9878 23.32 33.4705 23.32C30.9532 23.32 28.9158 22.5947 27.3585 21.144C25.8012 19.672 25.0225 17.7413 25.0225 15.352C25.0225 12.9627 25.8012 11.0427 27.3585 9.592C28.9158 8.12 30.9532 7.384 33.4705 7.384C35.9878 7.384 38.0252 8.12 39.5825 9.592C41.1398 11.0427 41.9185 12.9627 41.9185 15.352C41.9185 17.7413 41.1398 19.672 39.5825 21.144ZM35.0065 21.144C35.3052 20.056 35.4545 18.1253 35.4545 15.352C35.4545 12.5787 35.3052 10.6587 35.0065 9.592C34.7292 8.504 34.2172 7.96 33.4705 7.96C32.7238 7.96 32.2012 8.504 31.9025 9.592C31.6252 10.6587 31.4865 12.5787 31.4865 15.352C31.4865 18.1253 31.6252 20.056 31.9025 21.144C32.2012 22.2107 32.7238 22.744 33.4705 22.744C34.2172 22.744 34.7292 22.2107 35.0065 21.144ZM60.635 22.2H62.619V22.712H54.587V20.504H54.427C54.0217 21.528 53.4563 22.2533 52.731 22.68C52.027 23.1067 51.099 23.32 49.947 23.32C48.0697 23.32 46.6297 22.5627 45.627 21.048C44.6457 19.5333 44.155 17.6347 44.155 15.352C44.155 10.04 46.235 7.384 50.395 7.384C52.3363 7.384 53.6803 8.14133 54.427 9.656H54.587V1.112H52.315V0.599998H54.235C56.5603 0.599998 58.6937 0.397332 60.635 -0.00800133V22.2ZM54.715 15.352V14.488C54.715 12.6107 54.4697 11.16 53.979 10.136C53.4883 9.09067 52.923 8.568 52.283 8.568C51.6857 8.568 51.259 9.112 51.003 10.2C50.747 11.288 50.619 12.952 50.619 15.192C50.619 17.4107 50.7257 19.0853 50.939 20.216C51.1737 21.3253 51.6217 21.88 52.283 21.88C53.051 21.88 53.6483 21.208 54.075 19.864C54.5017 18.4987 54.715 16.9947 54.715 15.352ZM70.206 16.632C70.206 18.5733 70.4407 20.0453 70.91 21.048C71.4007 22.0507 72.286 22.552 73.566 22.552C74.8673 22.552 75.9873 22.136 76.926 21.304C77.886 20.472 78.5047 19.352 78.782 17.944L78.846 17.656L79.422 17.752C79.1233 19.5013 78.3873 20.8667 77.214 21.848C76.0407 22.8293 74.5153 23.32 72.638 23.32C69.8007 23.32 67.6033 22.648 66.046 21.304C64.4887 19.9387 63.71 17.9867 63.71 15.448C63.71 12.9093 64.4567 10.936 65.95 9.528C67.4433 8.09867 69.47 7.384 72.03 7.384C74.1207 7.384 75.8593 7.77867 77.246 8.568C78.654 9.336 79.358 10.5307 79.358 12.152C79.358 13.7733 78.7073 14.9253 77.406 15.608C76.1047 16.2907 74.4087 16.632 72.318 16.632H70.206ZM70.174 13.752V16.056H70.974C71.934 16.056 72.5953 15.736 72.958 15.096C73.342 14.4347 73.534 13.4747 73.534 12.216C73.534 9.37867 73.0327 7.96 72.03 7.96C71.3687 7.96 70.8887 8.344 70.59 9.112C70.3127 9.88 70.174 11.4267 70.174 13.752ZM93.8903 10.424V10.616C96.0023 10.6587 97.8476 11.096 99.4263 11.928C100.258 12.3547 100.909 12.9413 101.378 13.688C101.869 14.4347 102.114 15.288 102.114 16.248C102.114 20.5573 98.6583 22.712 91.7463 22.712H80.8663V22.2H83.2343V1.112H80.8663V0.599998H91.8743C95.1169 0.599998 97.4849 0.962666 98.9783 1.688C100.472 2.392 101.218 3.608 101.218 5.336C101.218 7.04267 100.493 8.32267 99.0423 9.176C97.6129 10.008 96.0129 10.424 94.2423 10.424H93.8903ZM90.6903 22.2C92.4823 22.2 93.7089 21.6987 94.3703 20.696C95.0529 19.672 95.3943 18.1893 95.3943 16.248C95.3943 14.2853 94.9463 12.92 94.0503 12.152C93.1543 11.3627 91.9703 10.968 90.4983 10.968H89.7303V22.2H90.6903ZM90.4343 10.424C91.7143 10.424 92.7063 9.96533 93.4103 9.048C94.1143 8.13067 94.4663 7.032 94.4663 5.752C94.4663 4.45067 94.1356 3.352 93.4743 2.456C92.8129 1.56 91.7463 1.112 90.2743 1.112H89.7303V10.424H90.4343ZM113.909 17.88V14.904C113.824 14.904 113.749 14.904 113.685 14.904C112.682 14.904 111.84 15.1813 111.157 15.736C110.474 16.2693 110.133 17.1333 110.133 18.328C110.133 19.5013 110.304 20.3653 110.645 20.92C110.986 21.4533 111.445 21.72 112.021 21.72C112.597 21.72 113.056 21.3147 113.397 20.504C113.738 19.6933 113.909 18.8187 113.909 17.88ZM120.533 21.496C121.344 21.496 121.866 20.4293 122.101 18.296L122.677 18.36C122.272 21.6667 120.789 23.32 118.229 23.32C117.162 23.32 116.298 22.968 115.637 22.264C114.976 21.5387 114.602 20.6747 114.517 19.672H114.325C114.026 20.824 113.525 21.72 112.821 22.36C112.117 23 110.997 23.32 109.461 23.32C107.946 23.32 106.666 22.9893 105.621 22.328C104.597 21.6453 104.085 20.568 104.085 19.096C104.085 15.9173 107.36 14.328 113.909 14.328V13.272C113.909 11.2027 113.653 9.83733 113.141 9.176C112.906 8.87733 112.554 8.61067 112.085 8.376C111.637 8.14133 111.093 8.024 110.453 8.024C109.237 8.024 108.16 8.30133 107.221 8.856C106.304 9.41067 105.845 10.0187 105.845 10.68C105.845 10.872 105.941 10.968 106.133 10.968C106.261 10.968 106.346 10.936 106.389 10.872C106.432 10.7867 106.464 10.712 106.485 10.648C106.506 10.5627 106.528 10.4987 106.549 10.456C106.57 10.392 106.613 10.296 106.677 10.168C106.762 10.04 106.954 9.86933 107.253 9.656C107.552 9.44267 107.957 9.336 108.469 9.336C108.981 9.336 109.418 9.57067 109.781 10.04C110.165 10.488 110.357 11.0427 110.357 11.704C110.357 12.3653 110.112 12.9307 109.621 13.4C109.13 13.848 108.512 14.072 107.765 14.072C107.018 14.072 106.378 13.816 105.845 13.304C105.333 12.7707 105.077 12.1307 105.077 11.384C105.077 10.1467 105.642 9.176 106.773 8.472C107.904 7.74667 109.525 7.384 111.637 7.384C113.77 7.384 115.466 7.66133 116.725 8.216C117.984 8.77067 118.837 9.56 119.285 10.584C119.733 11.5867 119.957 12.9733 119.957 14.744V20.184C119.957 21.0587 120.149 21.496 120.533 21.496ZM131.078 9.976H131.238C131.579 9.208 132.059 8.58933 132.678 8.12C133.296 7.62933 134.043 7.384 134.918 7.384C135.814 7.384 136.571 7.68267 137.19 8.28C137.83 8.856 138.15 9.56 138.15 10.392C138.15 11.224 137.904 11.9173 137.414 12.472C136.923 13.0267 136.294 13.304 135.526 13.304C134.758 13.304 134.128 13.08 133.638 12.632C133.168 12.184 132.934 11.6293 132.934 10.968C132.934 10.2853 133.126 9.73067 133.51 9.304C133.915 8.856 134.416 8.632 135.014 8.632C135.611 8.632 136.091 8.84533 136.454 9.272C136.624 9.592 136.795 9.752 136.966 9.752C137.158 9.752 137.254 9.656 137.254 9.464C137.254 9.336 137.19 9.176 137.062 8.984C136.55 8.30133 135.824 7.96 134.886 7.96C132.262 7.96 130.95 10.584 130.95 15.832V22.2H133.35V22.712H123.046V22.2H125.03V8.504H122.758V7.992H124.678C127.003 7.992 129.136 7.78933 131.078 7.384V9.976Z" fill="white"/>
</svg>
